<svg width="24" height="24" viewBox="0 0 24 24" fill="none" xmlns="http://www.w3.org/2000/svg">
<path fill-rule="evenodd" clip-rule="evenodd" d="M13.91 15.59L11.33 13L21 13L21 11L11.33 11L13.91 8.41L12.5 7L7.5 12L12.5 17L13.91 15.59ZM5 19L12 19L12 21L5 21C3.9 21 3 20.1 3 19L3 5C3 3.9 3.9 3 5 3L12 3L12 5L5 5L5 19Z" fill="#909095"/>
<mask id="mask0" mask-type="alpha" maskUnits="userSpaceOnUse" x="3" y="3" width="18" height="18">
<path fill-rule="evenodd" clip-rule="evenodd" d="M13.91 15.59L11.33 13L21 13L21 11L11.33 11L13.91 8.41L12.5 7L7.5 12L12.5 17L13.91 15.59ZM5 19L12 19L12 21L5 21C3.9 21 3 20.1 3 19L3 5C3 3.9 3.9 3 5 3L12 3L12 5L5 5L5 19Z" fill="white"/>
</mask>
<g mask="url(#mask0)">
<path fill-rule="evenodd" clip-rule="evenodd" d="M0 0H24V24H0V0Z" fill="#909095"/>
</g>
</svg>
