<svg width="20" height="20" viewBox="0 0 20 20" fill="none" xmlns="http://www.w3.org/2000/svg">
<path fill-rule="evenodd" clip-rule="evenodd" d="M1.66675 10C1.66675 5.39169 5.39175 1.66669 10.0001 1.66669C14.6084 1.66669 18.3334 5.39169 18.3334 10C18.3334 14.6084 14.6084 18.3334 10.0001 18.3334C5.39175 18.3334 1.66675 14.6084 1.66675 10ZM12.9917 14.1667L14.1667 12.9917L11.1751 10L14.1667 7.00835L12.9917 5.83335L10.0001 8.82502L7.00841 5.83335L5.83341 7.00835L8.82508 10L5.83341 12.9917L7.00841 14.1667L10.0001 11.175L12.9917 14.1667Z" fill="#4F58B8"/>
<mask id="mask0" mask-type="alpha" maskUnits="userSpaceOnUse" x="1" y="1" width="18" height="18">
<path fill-rule="evenodd" clip-rule="evenodd" d="M1.66675 10C1.66675 5.39169 5.39175 1.66669 10.0001 1.66669C14.6084 1.66669 18.3334 5.39169 18.3334 10C18.3334 14.6084 14.6084 18.3334 10.0001 18.3334C5.39175 18.3334 1.66675 14.6084 1.66675 10ZM12.9917 14.1667L14.1667 12.9917L11.1751 10L14.1667 7.00835L12.9917 5.83335L10.0001 8.82502L7.00841 5.83335L5.83341 7.00835L8.82508 10L5.83341 12.9917L7.00841 14.1667L10.0001 11.175L12.9917 14.1667Z" fill="white"/>
</mask>
<g mask="url(#mask0)">
<path fill-rule="evenodd" clip-rule="evenodd" d="M0 0H20V20H0V0Z" fill="#4F58B8"/>
</g>
</svg>
