<svg width="169" height="136" viewBox="0 0 169 136" fill="none" xmlns="http://www.w3.org/2000/svg">
<path d="M125 48V53H84.5H44V47.6904L84.5 19L125 48Z" fill="#FF9102"/>
<g filter="url(#filter0_d)">
<rect width="70" height="72" transform="matrix(-1 0 0 1 119 16)" fill="white"/>
</g>
<path d="M47.0345 79.8224V81.1039C47.0345 83.2263 48.757 84.9486 50.8792 84.9486H116.496C118.618 84.9486 120.34 83.2261 120.34 81.1039V79.8224H47.0345Z" fill="url(#paint0_linear)"/>
<path d="M60.4062 26.4688H107.281V28.0312H60.4062V26.4688Z" fill="#C2CECE"/>
<path d="M60.4062 36.1562H107.281V37.7188H60.4062V36.1562Z" fill="#C2CECE"/>
<path d="M60.4062 46H107.281V47.5625H60.4062V46Z" fill="#C2CECE"/>
<path d="M60.4062 55.8438H107.281V57.4062H60.4062V55.8438Z" fill="#C2CECE"/>
<g filter="url(#filter1_d)">
<path d="M44 48V96C70.3333 96 98.6667 96 125 96V48L84.5 79.5503L44 48Z" fill="url(#paint1_linear)"/>
</g>
<path d="M44 96L84.5 64L125 96H44Z" fill="url(#paint2_linear)"/>
<defs>
<filter id="filter0_d" x="39" y="6" width="90" height="92" filterUnits="userSpaceOnUse" color-interpolation-filters="sRGB">
<feFlood flood-opacity="0" result="BackgroundImageFix"/>
<feColorMatrix in="SourceAlpha" type="matrix" values="0 0 0 0 0 0 0 0 0 0 0 0 0 0 0 0 0 0 127 0"/>
<feOffset/>
<feGaussianBlur stdDeviation="5"/>
<feColorMatrix type="matrix" values="0 0 0 0 0 0 0 0 0 0 0 0 0 0 0 0 0 0 0.1 0"/>
<feBlend mode="normal" in2="BackgroundImageFix" result="effect1_dropShadow"/>
<feBlend mode="normal" in="SourceGraphic" in2="effect1_dropShadow" result="shape"/>
</filter>
<filter id="filter1_d" x="0" y="0" width="169" height="136" filterUnits="userSpaceOnUse" color-interpolation-filters="sRGB">
<feFlood flood-opacity="0" result="BackgroundImageFix"/>
<feColorMatrix in="SourceAlpha" type="matrix" values="0 0 0 0 0 0 0 0 0 0 0 0 0 0 0 0 0 0 127 0"/>
<feOffset dy="-4"/>
<feGaussianBlur stdDeviation="22"/>
<feColorMatrix type="matrix" values="0 0 0 0 0 0 0 0 0 0 0 0 0 0 0 0 0 0 0.05 0"/>
<feBlend mode="normal" in2="BackgroundImageFix" result="effect1_dropShadow"/>
<feBlend mode="normal" in="SourceGraphic" in2="effect1_dropShadow" result="shape"/>
</filter>
<linearGradient id="paint0_linear" x1="46.3942" y1="79.2342" x2="123.845" y2="85.4694" gradientUnits="userSpaceOnUse">
<stop stop-color="#C2CECE" stop-opacity="0"/>
<stop offset="0.179" stop-color="#AFBCBC" stop-opacity="0.179"/>
<stop offset="1" stop-color="#5B6A6A"/>
</linearGradient>
<linearGradient id="paint1_linear" x1="83.8444" y1="47.7441" x2="83.8401" y2="95.9572" gradientUnits="userSpaceOnUse">
<stop stop-color="#FFBB00"/>
<stop offset="1" stop-color="#FFD039"/>
</linearGradient>
<linearGradient id="paint2_linear" x1="84.5322" y1="64.0168" x2="84.5304" y2="95.9716" gradientUnits="userSpaceOnUse">
<stop stop-color="#FFC200"/>
<stop offset="1" stop-color="#FFBB00"/>
</linearGradient>
</defs>
</svg>
