<svg width="20" height="20" viewBox="0 0 20 20" fill="none" xmlns="http://www.w3.org/2000/svg">
<path fill-rule="evenodd" clip-rule="evenodd" d="M10.0013 1.66666C5.4013 1.66666 1.66797 5.4 1.66797 10C1.66797 14.6 5.4013 18.3333 10.0013 18.3333C14.6013 18.3333 18.3346 14.6 18.3346 10C18.3346 5.4 14.6013 1.66666 10.0013 1.66666ZM9.16797 15.8333V14.1667H10.8346V15.8333H9.16797ZM11.8096 10.1417L12.5596 9.375C13.0346 8.9 13.3346 8.23333 13.3346 7.5C13.3346 5.65833 11.843 4.16666 10.0013 4.16666C8.15964 4.16666 6.66797 5.65833 6.66797 7.5H8.33464C8.33464 6.58333 9.08464 5.83333 10.0013 5.83333C10.918 5.83333 11.668 6.58333 11.668 7.5C11.668 7.95833 11.4846 8.375 11.1763 8.675L10.143 9.725C9.54297 10.3333 9.16797 11.1667 9.16797 12.0833V12.5H10.8346C10.8346 11.25 11.2096 10.75 11.8096 10.1417Z" fill="white"/>
<mask id="mask0" mask-type="alpha" maskUnits="userSpaceOnUse" x="1" y="1" width="18" height="18">
<path fill-rule="evenodd" clip-rule="evenodd" d="M10.0013 1.66666C5.4013 1.66666 1.66797 5.4 1.66797 10C1.66797 14.6 5.4013 18.3333 10.0013 18.3333C14.6013 18.3333 18.3346 14.6 18.3346 10C18.3346 5.4 14.6013 1.66666 10.0013 1.66666ZM9.16797 15.8333V14.1667H10.8346V15.8333H9.16797ZM11.8096 10.1417L12.5596 9.375C13.0346 8.9 13.3346 8.23333 13.3346 7.5C13.3346 5.65833 11.843 4.16666 10.0013 4.16666C8.15964 4.16666 6.66797 5.65833 6.66797 7.5H8.33464C8.33464 6.58333 9.08464 5.83333 10.0013 5.83333C10.918 5.83333 11.668 6.58333 11.668 7.5C11.668 7.95833 11.4846 8.375 11.1763 8.675L10.143 9.725C9.54297 10.3333 9.16797 11.1667 9.16797 12.0833V12.5H10.8346C10.8346 11.25 11.2096 10.75 11.8096 10.1417Z" fill="white"/>
</mask>
<g mask="url(#mask0)">
<path fill-rule="evenodd" clip-rule="evenodd" d="M0 0H20V20H0V0Z" fill="white"/>
</g>
</svg>
